<?xml version="1.0" standalone="no"?>
<!DOCTYPE svg PUBLIC "-//W3C//DTD SVG 20010904//EN"
 "http://www.w3.org/TR/2001/REC-SVG-20010904/DTD/svg10.dtd">
<svg version="1.0" xmlns="http://www.w3.org/2000/svg"
 width="571.000000pt" height="571.000000pt" viewBox="0 0 571.000000 571.000000"
 preserveAspectRatio="xMidYMid meet">
<metadata>
Created by potrace 1.14, written by Peter Selinger 2001-2017
</metadata>
<g transform="translate(0.000000,571.000000) scale(0.100000,-0.100000)"
fill="#000000" stroke="none">
<path d="M2762 5655 c-13 -27 -29 -45 -39 -46 -21 -1 -66 -8 -69 -12 -1 -1 12
-19 31 -39 28 -32 32 -44 28 -75 -2 -21 -6 -44 -8 -50 -6 -18 0 -16 45 9 l38
23 42 -24 41 -23 -6 54 c-5 49 -3 55 26 88 l31 35 -33 9 c-19 4 -40 10 -47 12
-8 2 -21 22 -29 44 -9 22 -19 40 -23 40 -3 0 -16 -20 -28 -45z m48 -24 c8 -21
21 -32 47 -38 l35 -8 -26 -30 c-21 -25 -25 -36 -19 -69 l6 -39 -31 18 c-28 17
-34 17 -59 5 -15 -8 -31 -15 -34 -17 -4 -1 -4 17 -2 41 5 37 2 46 -22 68 l-27
25 40 7 c35 5 43 11 53 40 14 40 21 39 39 -3z"/>
<path d="M2570 5570 c-11 -27 -30 -36 -62 -31 -15 2 -8 -16 13 -35 16 -14 20
-27 16 -51 -6 -37 -1 -40 29 -18 19 12 24 12 40 0 29 -22 36 -18 31 20 -3 25
0 39 14 51 21 19 16 34 -11 34 -12 0 -26 13 -35 30 -9 17 -17 30 -19 30 -2 0
-9 -13 -16 -30z m30 -24 c0 -7 10 -16 22 -20 18 -4 20 -8 10 -18 -6 -6 -12
-23 -12 -35 0 -20 -3 -22 -19 -13 -13 7 -22 7 -26 0 -10 -16 -23 -11 -20 8 1
9 -4 24 -11 33 -12 14 -11 17 11 27 14 6 25 16 25 22 0 5 5 10 10 10 6 0 10
-6 10 -14z"/>
<path d="M2973 5570 c-8 -22 -20 -32 -43 -36 l-31 -7 22 -23 c17 -18 21 -31
16 -59 l-6 -35 30 16 c28 14 33 14 56 -2 l26 -16 -6 35 c-4 29 -1 40 19 60
l24 25 -35 6 c-19 4 -35 13 -35 20 0 6 -6 20 -13 29 -11 16 -13 15 -24 -13z
m53 -50 c8 0 14 -4 14 -10 0 -5 -4 -10 -10 -10 -5 0 -10 -14 -10 -31 0 -26 -2
-29 -14 -20 -11 9 -20 10 -36 1 -19 -10 -20 -9 -15 13 4 14 2 28 -4 31 -17 11
-13 24 9 31 11 3 20 14 21 23 0 14 3 13 16 -5 8 -13 22 -23 29 -23z"/>
<path d="M2550 5364 c0 -7 12 -14 28 -16 21 -2 28 -9 30 -30 2 -16 0 -28 -5
-29 -22 -2 -57 -10 -61 -14 -3 -3 -7 -27 -10 -55 l-5 -50 57 0 c41 0 56 4 56
14 0 9 -10 13 -29 11 -39 -3 -52 7 -48 36 3 16 11 25 28 27 13 2 30 9 37 14
14 12 16 66 3 87 -12 19 -81 23 -81 5z"/>
<path d="M2675 5363 c-18 -17 -21 -144 -5 -174 13 -23 71 -26 89 -5 14 17 16
165 3 178 -16 16 -72 17 -87 1z m38 -65 c-20 -70 -23 -71 -23 -11 0 52 5 63
26 63 10 0 10 -11 -3 -52z m31 -43 c-3 -52 -12 -71 -26 -57 -9 9 11 102 22
102 4 0 5 -20 4 -45z"/>
<path d="M2810 5365 c0 -8 12 -15 28 -17 23 -2 27 -8 27 -32 0 -26 -4 -30 -28
-31 -36 -2 -47 -19 -47 -72 l0 -43 56 0 c40 0 54 3 51 13 -2 7 -19 12 -39 11
-34 -1 -36 1 -34 30 2 24 8 32 27 34 13 2 30 9 37 14 14 12 16 66 3 87 -12 19
-81 23 -81 6z"/>
<path d="M2920 5364 c0 -8 16 -14 38 -16 33 -3 37 -6 38 -30 1 -25 -6 -32 -28
-30 -3 1 -9 -5 -12 -13 -3 -10 1 -15 14 -15 24 0 33 -15 26 -45 -5 -20 -11
-23 -41 -21 -25 3 -35 0 -35 -10 0 -18 83 -19 98 -1 12 14 11 171 -1 183 -13
13 -97 11 -97 -2z"/>
<path d="M1622 5292 c-13 -2 -21 -9 -19 -15 3 -9 107 -13 395 -15 344 -2 392
0 392 13 0 8 -6 15 -12 16 -47 2 -738 3 -756 1z"/>
<path d="M3209 5290 c-13 -3 -25 -10 -26 -17 -2 -9 90 -12 392 -13 369 0 395
1 395 18 0 16 -24 17 -368 17 -203 0 -379 -2 -393 -5z"/>
<path d="M1580 4825 l0 -195 84 0 c125 0 134 13 131 190 -3 160 -1 152 -25
178 -18 19 -31 22 -105 22 l-85 0 0 -195z m146 133 c11 -18 12 -239 2 -261 -7
-14 -19 -17 -46 -15 l-37 3 -1 135 c0 74 1 138 3 143 7 12 71 8 79 -5z"/>
<path d="M1844 4998 c1 -18 8 -24 36 -28 l35 -5 1 -142 0 -143 -36 0 c-32 0
-36 -3 -36 -25 l0 -25 103 0 103 0 0 25 c0 22 -4 25 -35 25 l-35 0 0 145 0
145 35 0 c31 0 35 3 35 25 l0 25 -104 0 c-101 0 -103 -1 -102 -22z"/>
<path d="M2130 5000 c-26 -26 -34 -60 -27 -118 6 -59 33 -82 93 -82 49 0 64
-16 58 -64 -6 -54 -9 -56 -79 -56 -63 0 -65 -1 -65 -25 0 -25 1 -25 78 -25 70
0 81 3 101 24 41 44 33 169 -12 198 -7 4 -31 8 -54 8 -46 0 -66 21 -61 62 6
41 17 48 79 48 56 0 59 1 59 25 0 24 -2 25 -75 25 -61 0 -79 -4 -95 -20z"/>
<path d="M2357 5013 c-2 -5 -3 -91 -3 -193 l1 -185 35 0 34 0 -1 90 -2 90 44
-92 c44 -92 45 -93 80 -93 20 0 34 3 32 8 -3 4 -15 30 -27 57 -12 28 -33 72
-46 99 l-24 49 46 81 c26 45 49 84 51 89 2 4 -11 7 -29 7 -30 0 -37 -6 -68
-57 -19 -32 -38 -66 -42 -75 -12 -30 -16 -20 -16 45 0 34 0 68 -1 75 -1 13
-57 17 -64 5z"/>
<path d="M2869 4978 c-1 -88 -1 -235 0 -290 l1 -58 81 0 c44 0 89 4 99 10 37
20 51 109 25 160 -12 24 -13 33 -1 62 16 41 11 95 -13 128 -17 23 -25 25 -105
28 l-86 3 -1 -43z m135 -14 c11 -4 16 -19 16 -44 0 -60 -7 -70 -51 -70 l-39 0
0 60 c0 60 0 60 29 60 16 0 36 -3 45 -6z m10 -172 c11 -19 14 -65 6 -88 -8
-20 -16 -24 -50 -24 l-40 0 0 60 0 60 39 0 c22 0 42 -4 45 -8z"/>
<path d="M3130 4824 l0 -195 33 3 32 3 1 70 c1 39 2 76 3 83 0 7 15 12 36 12
32 0 36 -3 42 -32 4 -18 7 -57 7 -85 0 -53 0 -53 32 -53 l31 0 -1 79 c-1 62
-5 83 -20 100 -17 18 -17 21 -2 36 16 16 19 28 19 80 0 47 -3 54 -25 75 -18
17 -35 20 -105 20 l-83 0 0 -196z m149 124 c9 -26 5 -78 -8 -91 -5 -5 -24 -7
-42 -5 -34 3 -34 4 -35 53 0 28 1 53 3 58 2 4 20 7 39 7 27 0 37 -5 43 -22z"/>
<path d="M3394 4825 l0 -195 106 0 c104 0 107 0 105 23 -1 20 -7 22 -73 25
l-72 3 0 59 0 59 53 3 c44 3 52 6 52 23 0 17 -8 20 -52 23 l-53 3 0 60 0 59
69 0 c69 0 84 8 73 38 -3 8 -34 12 -106 12 l-103 0 1 -195z"/>
<path d="M3714 4995 c0 -23 4 -25 43 -25 l42 0 0 -122 c-1 -163 -2 -166 -80
-170 -57 -3 -63 -5 -64 -25 -2 -22 1 -23 80 -23 121 0 127 9 127 227 0 76 0
144 -1 151 -1 8 -23 12 -74 12 -71 0 -73 -1 -73 -25z"/>
<path d="M3976 5012 c-4 -6 -11 -41 -30 -152 -5 -29 -17 -96 -23 -125 -2 -11
-6 -36 -9 -55 -3 -19 -8 -38 -11 -42 -2 -5 12 -8 31 -8 20 0 37 5 37 10 1 6 3
15 4 20 1 6 3 19 4 30 1 16 8 20 40 20 39 0 40 -1 43 -37 3 -35 6 -38 36 -41
37 -4 35 -17 12 118 -5 30 -12 73 -16 95 -3 22 -7 42 -9 45 -2 3 -6 26 -10 50
-11 77 -13 80 -55 80 -21 0 -41 -3 -44 -8z m52 -59 c-2 -9 10 -125 17 -165 5
-26 3 -28 -25 -28 -16 0 -30 5 -30 11 0 40 25 189 32 189 4 0 7 -3 6 -7z"/>
<path d="M2139 4476 c-36 -29 -81 -73 -101 -97 l-36 -43 14 59 c7 33 14 71 14
83 0 23 -2 22 -47 -16 -27 -22 -68 -61 -93 -86 l-45 -46 -5 43 -5 42 -57 -85
c-31 -47 -67 -111 -80 -143 -23 -54 -25 -57 -35 -35 -10 22 -12 20 -36 -33
-24 -53 -66 -179 -71 -213 -4 -27 -11 -26 -31 5 -11 16 -22 29 -25 29 -3 0
-13 -28 -22 -62 -29 -108 -40 -171 -42 -243 -1 -35 -6 -50 -16 -50 -7 0 -17
-13 -22 -30 -14 -50 -39 -213 -40 -260 0 -41 -2 -44 -20 -34 -13 7 -24 7 -30
1 -17 -17 -12 -224 8 -325 l6 -29 -27 18 -28 18 6 -85 c6 -87 44 -253 71 -304
8 -16 14 -31 12 -33 -2 -2 -20 3 -39 12 l-35 14 8 -26 c28 -95 121 -282 184
-370 42 -58 44 -64 14 -57 -42 9 -88 13 -88 8 0 -2 20 -30 44 -61 71 -91 179
-187 296 -261 36 -22 58 -41 50 -42 -8 0 -22 -2 -30 -4 -8 -1 -37 1 -63 5 -26
4 -47 4 -47 1 0 -3 17 -17 38 -31 20 -14 39 -27 42 -30 3 -3 29 -21 58 -39 85
-54 82 -43 52 -188 -15 -71 -25 -139 -23 -152 14 -95 138 -158 347 -177 83 -8
86 -9 86 -35 0 -55 70 -139 145 -174 192 -90 572 -92 762 -3 67 31 137 105
153 162 12 44 14 46 49 46 140 2 318 60 360 118 27 38 31 80 15 155 -18 87
-24 117 -31 154 -5 30 -2 33 100 102 98 66 138 98 103 85 -24 -9 -126 -11
-132 -3 -2 5 10 16 28 25 100 51 274 206 339 301 l31 44 -34 -5 c-97 -17 -92
-22 -41 52 47 68 166 305 178 355 8 30 1 33 -39 17 -31 -11 -31 -13 -7 43 41
96 90 367 65 367 -4 0 -17 -9 -29 -20 l-22 -21 12 64 c14 74 18 276 6 296 -7
10 -13 11 -30 2 -20 -11 -21 -9 -22 26 0 21 -2 49 -5 63 -2 14 -9 57 -15 95
-17 113 -28 145 -44 139 -12 -5 -15 5 -16 52 -1 71 -4 94 -30 206 -11 48 -25
90 -30 93 -5 3 -17 -8 -28 -25 -20 -34 -27 -31 -36 18 -7 44 -32 116 -63 186
-22 50 -27 56 -38 42 -10 -15 -18 -5 -53 66 -22 46 -59 108 -81 138 -39 54
-40 54 -41 25 -1 -17 -1 -36 0 -42 3 -21 -8 -15 -40 22 -17 19 -58 58 -91 87
l-61 53 6 -61 c3 -33 9 -69 13 -80 4 -10 -21 9 -56 43 -63 64 -140 129 -140
119 0 -20 56 -179 76 -214 l24 -44 -35 21 -35 20 0 -24 c0 -31 32 -105 70
-160 17 -25 32 -62 35 -87 3 -24 23 -79 44 -123 21 -44 41 -101 45 -128 3 -26
20 -77 38 -115 18 -37 33 -76 34 -88 0 -12 4 -55 8 -96 l7 -74 -50 1 c-34 2
-58 9 -82 27 -37 28 -97 51 -109 43 -12 -8 -21 11 -25 51 -2 25 6 52 26 91 52
100 33 215 -47 281 -20 17 -51 34 -66 38 -22 4 -28 10 -23 22 39 94 16 206
-55 265 -61 52 -146 49 -334 -12 l-130 -42 -25 20 c-132 106 -279 90 -360 -39
-32 -51 -60 -150 -57 -202 3 -32 0 -36 -46 -57 -83 -38 -131 -142 -103 -225 8
-22 21 -44 30 -49 13 -7 10 -12 -17 -31 -24 -16 -36 -34 -44 -66 -9 -40 -14
-44 -44 -48 -18 -2 -54 -17 -79 -34 -34 -24 -56 -32 -93 -32 -44 -1 -48 1 -43
19 3 11 8 58 12 105 4 54 12 94 23 110 26 39 47 101 55 160 4 30 15 66 24 80
27 39 60 123 64 162 2 19 21 64 44 99 37 59 48 86 59 148 l5 23 -35 -21 -34
-21 33 77 c30 70 68 183 61 183 -1 0 -31 -24 -67 -54z m-5 -88 c-30 -78 -62
-127 -123 -188 -26 -26 -72 -89 -101 -140 -30 -51 -56 -88 -58 -81 -4 11 74
146 105 182 7 9 11 23 7 32 -6 17 -24 14 -24 -4 0 -6 5 -7 11 -3 7 4 0 -13
-15 -37 -15 -24 -35 -57 -44 -73 -10 -16 -28 -40 -41 -55 -23 -26 -23 -26 -7
-1 9 14 19 32 23 40 4 8 19 33 35 54 32 45 38 73 7 36 -32 -38 -11 -3 45 75
64 91 109 145 120 145 5 0 1 -9 -8 -19 -10 -11 -13 -22 -8 -25 5 -3 15 1 22 9
7 8 9 15 4 15 -4 0 3 12 17 27 22 25 22 26 2 9 -38 -32 -26 0 12 33 20 17 37
31 40 31 2 0 -7 -28 -21 -62z m1319 -1 c-3 -6 -2 -8 3 -4 13 8 34 -10 86 -75
51 -62 145 -201 105 -154 l-24 28 0 -26 c0 -14 3 -23 7 -21 5 3 21 -13 38 -35
16 -22 33 -36 37 -32 5 4 5 1 1 -6 -4 -7 0 -24 9 -38 9 -14 15 -28 12 -30 -3
-3 -19 20 -36 52 -18 31 -34 54 -37 52 -2 -3 11 -31 31 -63 19 -32 32 -62 29
-67 -3 -5 -26 25 -50 68 -53 94 -88 142 -126 173 -37 30 -70 82 -103 162 -31
77 -31 78 0 49 13 -12 22 -27 18 -33z m-1483 -56 c-11 -39 -25 -73 -30 -76 -6
-4 -30 -41 -55 -83 -61 -104 -57 -65 6 61 29 56 50 102 49 102 -2 0 0 10 4 23
4 12 12 22 17 22 5 0 9 5 9 11 0 5 -6 7 -12 3 -7 -4 -4 3 7 15 29 34 31 8 5
-78z m1689 13 c55 -60 78 -94 63 -94 -5 0 -9 -11 -9 -25 0 -13 2 -23 6 -21 3
2 7 -7 7 -20 1 -13 0 -24 -2 -24 -9 0 -62 118 -56 125 4 5 1 5 -5 1 -7 -4 -13
-2 -13 3 0 14 13 14 28 -1 8 -8 12 -8 12 -1 0 20 -25 31 -55 24 -3 0 17 -45
45 -99 27 -54 50 -105 50 -113 -1 -9 -5 -7 -12 6 -6 11 -33 53 -60 93 -30 46
-55 99 -68 145 -11 39 -20 73 -20 75 0 11 46 -26 89 -74z m-1726 24 c-5 -7 -9
-20 -8 -28 1 -8 -3 -23 -8 -33 -6 -14 -12 -16 -22 -7 -10 8 -17 6 -29 -12 -20
-28 -20 -35 -1 -35 9 0 14 6 11 13 -6 16 10 29 18 15 3 -5 -6 -32 -21 -60 -16
-28 -30 -46 -32 -40 -2 6 2 16 8 22 13 13 15 31 3 23 -11 -7 -8 45 4 66 13 23
78 95 83 92 2 -2 0 -9 -6 -16z m-120 -180 c-3 -141 -3 -144 -40 -218 -29 -60
-38 -71 -43 -55 -9 24 -5 47 25 155 30 107 24 118 -8 14 -18 -60 -25 -73 -29
-56 -4 12 -2 20 3 16 5 -3 9 4 9 15 0 23 -16 29 -22 9 -3 -7 -7 -3 -10 9 -7
26 34 130 78 201 19 28 35 52 37 52 2 0 2 -64 0 -142z m2018 4 c28 -58 39 -93
37 -115 l-4 -32 -10 33 c-11 37 -27 46 -32 18 -3 -11 0 -16 7 -12 7 5 8 1 4
-10 -5 -15 -7 -15 -16 1 -6 12 -5 25 3 41 14 25 5 57 -32 119 -21 36 -23 30
-4 -16 7 -19 12 -50 10 -69 -2 -29 -1 -31 6 -12 14 34 20 26 9 -13 -7 -23 -6
-41 1 -55 6 -11 9 -20 6 -20 -2 0 2 -21 10 -47 17 -55 19 -117 3 -108 -5 4
-24 35 -40 68 -29 59 -30 70 -35 212 l-4 150 20 -25 c11 -14 39 -62 61 -108z
m-1706 22 c-19 -47 -84 -135 -95 -129 -12 7 -33 -22 -25 -37 4 -7 0 -5 -8 4
-15 19 -29 14 -21 -6 5 -12 -47 -68 -63 -68 -4 0 -7 -4 -6 -9 2 -5 -2 -9 -7
-9 -17 0 -11 11 35 66 48 55 60 80 23 48 l-21 -19 19 30 c40 64 78 104 129
138 52 35 58 34 40 -9z m1412 -44 c12 -12 38 -43 57 -70 33 -46 34 -49 15 -55
-10 -4 -16 -11 -13 -17 4 -7 9 -7 13 1 5 7 16 0 29 -19 13 -16 17 -30 11 -30
-8 0 -8 -4 1 -15 7 -8 17 -12 23 -8 6 4 7 1 2 -7 -11 -17 -115 98 -107 119 3
9 1 12 -6 7 -6 -3 -13 -2 -17 4 -4 6 -10 8 -15 5 -12 -8 -100 120 -100 146 0
12 76 -31 107 -61z m-1869 -97 c24 -63 31 -111 29 -202 -3 -77 -9 -110 -31
-166 -43 -106 -50 -104 -41 10 9 112 10 166 5 210 -5 44 -13 53 -20 25 -4 -14
-2 -31 4 -39 8 -11 8 -13 -1 -8 -13 8 -30 -93 -18 -115 3 -7 -1 -4 -10 7 -16
19 -16 37 -1 112 12 57 40 144 48 150 6 3 7 -3 3 -16 -3 -12 -2 -21 3 -21 6 0
8 17 6 40 -6 46 8 53 24 13z m2276 -45 c33 -91 55 -207 45 -233 -6 -17 -8 -17
-8 -2 -1 10 -9 17 -21 17 -15 0 -20 7 -21 28 0 15 -4 36 -9 47 -6 13 -7 2 -3
-30 3 -27 10 -51 15 -53 4 -2 8 -8 8 -13 0 -6 -4 -8 -8 -5 -5 3 -5 -18 -1 -47
18 -122 6 -150 -29 -69 -50 117 -58 249 -22 365 11 37 22 67 24 67 2 0 15 -33
30 -72z m-97 -11 c1 -39 1 -40 -9 -14 -8 23 -6 57 4 57 2 0 4 -19 5 -43z
m-1807 1 c-9 -42 -56 -134 -72 -145 -30 -18 -49 1 -23 24 4 4 5 3 1 -4 -3 -6
-2 -14 3 -17 14 -9 23 26 9 37 -9 6 -8 7 5 3 9 -3 17 -4 17 -2 0 2 7 21 15 42
14 35 14 37 0 20 -8 -11 -15 -24 -15 -30 0 -5 -3 -7 -6 -3 -6 5 -69 -70 -107
-127 -13 -19 -14 -17 -7 26 5 36 14 53 36 70 46 36 118 101 132 121 19 24 21
21 12 -15z m1610 -100 c47 -39 55 -52 58 -85 2 -37 2 -38 -13 -15 -9 12 -20
20 -25 17 -5 -3 -12 0 -16 6 -4 8 -3 9 4 5 29 -18 4 18 -60 88 -45 48 -48 39
-8 -32 16 -29 24 -52 17 -49 -14 4 -74 119 -83 160 l-7 29 39 -39 c22 -21 64
-59 94 -85z m-1815 -68 c-8 -53 -26 -102 -46 -129 -24 -30 -24 -33 11 73 17
49 30 96 29 105 0 9 -7 -6 -16 -33 -11 -37 -17 -46 -24 -35 -7 10 -8 7 -4 -11
3 -14 2 -36 -3 -50 -8 -23 -9 -22 -17 15 -5 22 -8 45 -7 50 1 6 -7 -1 -18 -14
l-21 -25 3 27 c2 15 26 53 53 84 l49 56 9 -38 c4 -22 5 -55 2 -75z m1957 44
c42 -44 64 -82 53 -92 -3 -3 -12 3 -20 14 -13 18 -14 17 -15 -16 l-2 -35 -15
43 c-8 24 -17 41 -19 39 -3 -2 0 -17 7 -33 6 -16 12 -51 13 -77 l3 -49 -19 24
c-27 35 -48 116 -45 175 1 29 5 53 9 53 3 0 26 -20 50 -46z m-2162 -30 c0 -14
-4 -23 -8 -20 -5 3 -7 -16 -4 -43 2 -27 0 -56 -4 -64 -6 -10 -9 6 -9 46 1 34
4 68 8 75 5 6 5 17 2 22 -3 6 -1 10 4 10 6 0 11 -12 11 -26z m-74 -85 c13 -38
33 -120 43 -182 l18 -112 -30 -62 c-29 -59 -31 -61 -43 -40 -26 44 -34 69 -35
105 0 30 -2 33 -9 17 -8 -19 -9 -19 -9 2 -1 12 4 25 9 28 6 4 7 12 3 18 -11
17 -10 137 1 130 5 -4 6 -1 0 8 -4 8 -10 23 -11 33 -5 27 -15 36 -13 11 1 -11
2 -65 1 -120 -1 -78 -4 -96 -13 -81 -10 18 -5 207 7 225 2 4 7 22 10 39 3 17
10 44 16 59 9 25 11 26 20 10 6 -10 22 -49 35 -88z m2523 24 c38 -193 38 -293
-2 -293 -7 0 -6 4 3 10 10 6 11 10 3 10 -7 0 -13 5 -13 11 0 5 4 8 8 5 5 -3
10 21 11 54 1 32 -3 61 -8 65 -7 4 -10 -11 -8 -44 2 -28 1 -48 -3 -46 -4 2 -8
-26 -9 -62 -1 -36 -9 -80 -17 -97 -8 -17 -12 -23 -9 -12 3 10 7 53 10 95 3 66
3 70 -5 26 -13 -76 -19 -127 -20 -160 0 -26 -5 -22 -35 39 -37 73 -38 76 -14
211 18 107 72 260 89 250 4 -2 12 -30 19 -62z m-2121 -3 c-1 -16 -6 -30 -11
-30 -5 0 -7 -6 -4 -14 6 -15 -35 -110 -51 -120 -5 -3 -12 1 -16 9 -3 8 0 17 6
21 7 5 8 2 4 -7 -4 -8 -1 -5 8 5 8 10 13 22 11 26 -3 5 1 10 9 13 7 3 16 16
19 29 5 21 4 21 -16 -6 -42 -55 -59 -73 -53 -53 9 29 0 20 -50 -48 -26 -36
-49 -65 -51 -65 -2 0 -1 21 2 47 6 48 9 54 104 153 28 29 79 70 89 70 1 0 1
-13 0 -30z m1699 -12 c20 -18 53 -51 73 -72 19 -22 43 -47 52 -56 12 -11 19
-35 21 -78 2 -34 6 -65 10 -68 11 -11 8 -21 -7 -21 -7 0 -13 7 -12 16 1 9 -6
16 -14 16 -8 1 -14 6 -12 13 1 7 -3 12 -8 12 -5 0 -9 6 -7 13 1 6 -3 11 -10
10 -7 -2 -10 4 -6 13 3 9 0 14 -8 12 -8 -2 -13 3 -11 10 1 6 -3 12 -8 12 -6 0
-9 3 -8 8 4 10 -35 72 -45 72 -4 0 -6 4 -3 9 3 5 -1 11 -9 14 -12 5 -12 1 2
-28 9 -19 20 -32 25 -29 4 3 5 -3 1 -12 -5 -13 -3 -15 8 -9 8 4 11 5 7 0 -4
-4 -2 -17 4 -29 10 -19 10 -20 -5 -7 -9 7 -29 38 -43 68 -23 46 -25 56 -13 64
11 7 10 9 -5 9 -11 0 -17 3 -14 6 4 3 2 19 -2 35 -11 38 0 37 47 -3z m303 -33
c-6 -30 -8 -33 -9 -13 -1 25 8 62 14 56 2 -2 -1 -21 -5 -43z m-2230 -190 c-6
-44 -18 -93 -25 -110 l-13 -30 -1 27 c-1 25 15 117 27 148 2 8 6 33 8 55 3 29
1 36 -6 25 -5 -8 -10 -25 -10 -38 0 -15 -4 -21 -12 -16 -8 5 -9 0 -6 -14 4
-12 3 -20 -2 -17 -4 2 -15 -14 -25 -36 -13 -28 -21 -36 -27 -27 -13 21 -9 48
11 76 10 15 22 38 26 52 4 14 20 43 34 64 l26 40 3 -60 c2 -32 -1 -95 -8 -139z
m2174 57 c23 -48 30 -74 25 -92 -6 -23 -9 -19 -36 38 -16 34 -32 60 -36 56 -4
-4 -7 7 -7 24 0 18 -3 32 -8 32 -4 0 -6 -18 -4 -39 2 -23 9 -39 15 -37 7 2 9
1 5 -1 -12 -7 -8 -43 8 -88 12 -36 13 -37 9 -8 -2 18 0 35 5 38 6 4 7 -1 3
-11 -4 -11 -3 -15 4 -11 7 5 7 -11 -2 -44 -18 -66 -21 -68 -30 -22 -5 21 -10
45 -12 53 -12 48 -18 140 -14 215 l1 30 21 -33 c12 -18 36 -63 53 -100z
m-2040 22 c4 -9 2 -13 -5 -8 -7 4 -10 1 -7 -7 3 -8 12 -12 19 -11 8 2 10 0 6
-5 -5 -4 -13 -9 -18 -9 -5 -1 -11 -3 -14 -4 -3 -1 -10 -3 -17 -4 -6 0 -13 -7
-16 -15 -3 -9 0 -11 9 -5 12 7 12 5 0 -9 -7 -9 -18 -14 -23 -11 -5 3 -8 -2 -6
-12 2 -11 -3 -19 -12 -19 -8 0 -14 -7 -14 -16 1 -9 -5 -16 -12 -16 -10 0 -10
5 -2 20 11 21 100 147 104 147 1 0 5 -7 8 -16z m15 -131 c-5 -38 -8 -73 -8
-79 -1 -6 -10 -23 -22 -38 -17 -21 -24 -24 -35 -15 -11 9 -15 8 -20 -4 -3 -9
-3 -20 0 -25 2 -4 -4 -21 -15 -38 -11 -16 -19 -23 -19 -14 0 13 -1 13 -10 0
-13 -20 -12 -33 1 -24 7 4 -1 -16 -17 -45 -16 -28 -31 -46 -33 -40 -1 5 4 18
13 28 21 23 21 37 -1 20 -15 -13 -15 -12 -5 8 14 25 15 36 4 29 -5 -3 -8 17
-7 44 1 61 23 94 141 223 19 20 36 37 37 37 2 0 0 -30 -4 -67z m1996 57 c3 -5
1 -10 -4 -10 -6 0 -11 5 -11 10 0 6 2 10 4 10 3 0 8 -4 11 -10z m-53 -157 c35
-46 39 -57 36 -100 l-3 -48 -29 48 c-25 42 -30 46 -41 31 -11 -16 -12 -16 -18
0 -4 10 -3 15 3 11 6 -4 5 5 -2 19 -6 14 -15 26 -20 26 -5 0 -6 5 -2 12 4 6 3
8 -4 5 -5 -4 -8 -16 -5 -27 3 -11 10 -17 16 -13 6 4 7 1 2 -6 -5 -10 -13 -7
-31 10 -23 24 -28 44 -39 144 l-5 50 51 -55 c28 -30 69 -78 91 -107z m-2132
109 c0 -15 -2 -15 -10 -2 -13 20 -13 33 0 25 6 -3 10 -14 10 -23z m-221 -50
c39 -79 64 -182 56 -237 -6 -38 -11 -98 -14 -157 -1 -26 -20 -22 -27 6 -3 14
-12 64 -19 113 -7 48 -13 72 -13 53 -1 -19 3 -57 7 -83 5 -32 5 -45 -2 -38 -6
6 -13 36 -16 68 l-5 58 -7 -40 c-5 -29 -7 -17 -7 45 0 47 5 94 10 105 9 18 9
19 -6 5 -12 -12 -16 -36 -17 -93 -1 -67 -3 -76 -16 -65 -15 12 -14 33 3 183 8
77 26 145 35 139 5 -3 22 -31 38 -62z m2705 -132 c10 -86 11 -119 2 -129 -9
-11 -12 -4 -17 35 l-6 49 -1 -62 c-1 -35 -5 -63 -9 -63 -5 0 -7 32 -5 70 2 39
8 68 12 65 5 -3 7 5 4 17 -3 13 -5 37 -5 55 1 17 -4 35 -10 39 -8 4 -9 3 -5
-4 4 -7 3 -28 -3 -47 -6 -24 -6 -37 1 -41 7 -5 6 -11 -4 -18 -10 -7 -18 -35
-21 -76 l-6 -65 14 65 13 65 0 -66 c-1 -37 -7 -80 -15 -95 l-13 -29 5 28 c3
15 1 27 -5 27 -5 0 -10 -15 -10 -32 0 -45 -10 -76 -25 -82 -9 -3 -13 7 -13 37
1 23 -2 80 -6 127 -6 72 -4 95 14 155 25 78 44 121 69 148 15 18 16 17 24 -20
4 -21 14 -90 21 -153z m-2500 -65 c-3 -114 -6 -133 -29 -224 -16 -63 -34 -88
-30 -42 1 17 -1 31 -6 31 -9 0 -5 -62 5 -79 12 -19 -2 -12 -24 11 -15 16 -20
35 -20 75 l0 54 25 -28 24 -28 -1 90 -2 90 -5 -80 c-6 -76 -7 -78 -21 -55 -16
26 -16 135 0 125 4 -3 6 14 3 37 -4 28 -3 39 5 34 6 -3 9 1 7 11 -1 10 3 24 9
32 8 12 8 13 -2 7 -20 -12 -31 -49 -38 -124 -4 -37 -8 -74 -10 -82 -1 -8 -3
-39 -3 -68 -1 -34 -5 -51 -11 -47 -15 9 -11 160 6 238 14 68 43 142 77 197
l22 35 11 -50 c6 -27 10 -99 8 -160z m2310 65 c24 -61 42 -170 41 -255 0 -95
-16 -94 -21 2 -2 43 -6 87 -8 98 -3 11 -5 34 -6 50 -4 58 -19 -45 -18 -120 l2
-70 6 70 6 70 3 -55 c1 -30 4 -68 5 -83 1 -19 -4 -32 -16 -38 -16 -9 -18 -1
-21 88 l-3 98 -3 -120 -3 -120 -14 45 c-41 125 -57 352 -31 437 l11 34 26 -43
c14 -24 34 -63 44 -88z m-154 -56 c17 -31 29 -58 26 -61 -3 -3 -1 -14 5 -24 5
-11 6 -19 2 -19 -12 0 -81 134 -76 148 7 18 9 17 43 -44z m-2081 -89 c-24 -30
-44 -53 -46 -51 -2 1 16 37 39 79 35 62 44 71 46 51 2 -16 -10 -41 -39 -79z
m2111 -30 c3 2 6 -5 6 -15 0 -18 -1 -18 -16 -2 -42 45 -80 107 -80 131 0 21 9
12 42 -46 23 -40 44 -70 48 -68z m-2484 22 c76 -68 123 -208 129 -379 6 -150
-21 -129 -65 50 -12 51 -24 91 -27 89 -2 -3 4 -35 13 -71 10 -39 13 -71 8 -76
-5 -5 -10 5 -11 24 -2 17 -10 50 -18 72 -16 40 -15 29 5 -55 5 -18 5 -30 1
-25 -9 10 -31 94 -31 119 0 9 4 14 9 11 4 -3 3 13 -3 35 -10 40 -11 40 -19 14
-6 -17 -4 -49 6 -91 13 -58 13 -64 0 -51 -23 22 -43 138 -47 264 -4 122 -5
120 50 70z m2865 -48 c0 -65 -6 -153 -15 -199 -13 -70 -20 -91 -28 -96 -17
-11 -18 2 -4 49 8 26 10 47 5 47 -5 0 -9 10 -10 23 0 12 -10 -11 -21 -51 -22
-79 -38 -93 -19 -16 7 25 10 48 8 50 -2 3 -17 -45 -33 -105 -15 -61 -36 -120
-46 -133 -17 -23 -18 -21 -17 62 0 180 46 325 131 408 23 23 43 40 45 39 1 -2
3 -37 4 -78z m-2457 8 c-65 -33 -105 -130 -114 -272 0 -5 -9 1 -18 13 -18 23
-18 26 6 110 20 70 32 94 63 124 21 20 46 49 55 63 l17 27 13 -24 c12 -21 10
-24 -22 -41z m2065 -40 c23 -24 42 -59 54 -100 30 -104 31 -104 8 -133 l-21
-27 0 35 c0 55 -20 149 -41 189 -17 34 -40 57 -83 84 -10 7 -14 18 -10 32 6
21 7 21 32 -10 14 -18 42 -49 61 -70z m-2224 -232 c38 -53 44 -68 49 -130 8
-83 14 -139 23 -180 6 -30 5 -30 -39 16 -35 35 -48 58 -58 100 -14 58 -39 115
-40 89 0 -9 5 -21 12 -28 7 -7 9 -12 5 -12 -4 0 -3 -9 3 -20 8 -16 8 -18 -4
-14 -8 3 -13 14 -11 25 2 10 -1 21 -6 25 -5 3 -9 23 -7 45 1 21 -1 42 -5 45
-9 9 -9 -48 -1 -109 4 -30 11 -44 18 -40 7 4 7 2 -1 -7 -25 -27 -33 2 -33 113
0 62 -7 139 -14 172 l-14 60 40 -45 c21 -25 59 -72 83 -105z m2375 119 c0 -10
-5 -14 -16 -10 -8 3 -13 2 -11 -2 3 -4 1 -16 -4 -27 -7 -18 -8 -17 -8 7 -1 16
6 31 17 37 22 14 22 14 22 -5z m49 -55 c-6 -30 -15 -71 -21 -91 -9 -29 -8 -41
3 -55 9 -11 9 -14 2 -9 -10 5 -11 -1 -6 -26 10 -53 9 -91 -4 -95 -8 -3 -10 11
-6 50 4 38 2 57 -7 62 -9 5 -11 4 -6 -3 4 -7 2 -12 -4 -12 -6 0 -8 -5 -3 -12
4 -7 9 -22 10 -33 2 -16 1 -17 -6 -5 -5 8 -7 18 -5 22 3 4 1 8 -4 8 -5 0 -16
-27 -23 -60 -11 -51 -22 -69 -62 -110 l-48 -48 6 41 c3 23 8 49 10 57 2 8 7
51 11 95 5 65 11 87 36 123 41 60 129 164 134 159 2 -2 -1 -28 -7 -58z m-2672
19 c-3 -8 -6 -5 -6 6 -1 11 2 17 5 13 3 -3 4 -12 1 -19z m2794 -103 c-10 -33
-23 -59 -30 -57 -6 1 -11 -5 -11 -15 0 -9 -2 -14 -5 -11 -3 3 -2 20 2 39 6 31
7 32 13 10 4 -18 10 -6 25 50 11 39 21 66 22 58 2 -8 -5 -41 -16 -74z m-2801
-42 c127 -139 151 -180 185 -318 17 -69 28 -125 24 -125 -4 0 -17 21 -31 48
-41 81 -110 202 -115 202 -2 0 21 -48 51 -106 35 -67 48 -100 35 -88 -11 10
-43 65 -71 121 -29 57 -53 101 -56 99 -2 -3 18 -48 46 -100 27 -53 46 -96 43
-96 -4 0 -30 48 -59 106 -36 72 -51 113 -47 127 5 18 4 19 -5 7 -10 -12 -11
-11 -7 8 3 14 1 20 -6 15 -7 -4 -8 0 -3 13 5 14 4 16 -4 8 -13 -13 17 -98 70
-204 31 -61 31 -63 9 -48 -39 25 -93 149 -114 263 -15 75 -21 135 -14 135 4 0
35 -30 69 -67z m2886 -53 c-28 -149 -73 -259 -121 -293 -23 -16 -21 -9 24 80
55 108 68 148 53 157 -6 4 -8 -3 -5 -16 3 -17 2 -19 -5 -10 -8 11 -10 11 -15
-1 -3 -8 -3 -24 0 -35 2 -11 -1 -23 -8 -28 -9 -5 -10 -2 -6 10 4 10 3 15 -4
11 -5 -4 -7 -15 -4 -25 3 -11 -1 -32 -9 -47 -17 -32 -21 -26 -6 11 19 50 1 25
-40 -56 -23 -46 -51 -92 -62 -103 -11 -11 7 34 41 99 33 66 59 121 57 123 -1
2 -35 -57 -75 -132 -40 -74 -77 -138 -83 -141 -8 -5 -9 -1 -5 10 11 28 36 129
43 171 3 22 11 49 17 60 36 69 218 276 225 255 2 -6 -3 -51 -12 -100z m-219
58 c-3 -8 -6 -5 -6 6 -1 11 2 17 5 13 3 -3 4 -12 1 -19z m-38 -158 c0 -10 -3
-8 -9 5 -12 27 -12 43 0 25 5 -8 9 -22 9 -30z m-2418 -3 c-10 -9 -11 -8 -5 6
3 10 9 15 12 12 3 -3 0 -11 -7 -18z m2396 -19 c-3 -8 -6 -5 -6 6 -1 11 2 17 5
13 3 -3 4 -12 1 -19z m-2261 -188 c3 -19 13 -62 21 -95 9 -33 17 -76 18 -95 1
-19 12 -59 24 -88 12 -29 16 -50 9 -46 -8 5 -9 2 -5 -10 4 -10 3 -15 -4 -11
-5 4 -7 15 -4 26 4 13 2 19 -6 17 -19 -5 -102 167 -94 193 6 19 11 15 38 -35
16 -31 32 -54 34 -52 4 4 -73 154 -85 166 -5 5 0 -12 16 -49 3 -9 1 -12 -6 -7
-8 5 -10 1 -5 -10 4 -12 3 -15 -6 -10 -7 5 -11 17 -8 27 3 11 1 16 -5 13 -6
-4 -8 2 -3 17 5 19 4 21 -4 9 -9 -13 -11 -13 -11 1 0 8 6 21 13 28 10 11 8 11
-9 1 -21 -13 -21 -13 13 -94 31 -77 32 -80 8 -53 -13 15 -33 58 -44 95 -31
103 -59 231 -53 237 4 3 39 -27 79 -67 53 -54 74 -82 79 -108z m2284 103 c-21
-108 -61 -235 -82 -264 -12 -16 -23 -27 -25 -25 -2 1 10 36 27 76 16 40 27 77
24 82 -3 5 2 16 12 23 11 8 15 15 11 15 -4 0 -3 10 3 23 10 20 9 20 -9 -3 -11
-14 -23 -33 -27 -43 -3 -9 -10 -14 -16 -11 -6 4 -6 -1 1 -14 15 -28 13 -41 -3
-20 -12 16 -18 8 -62 -72 -26 -50 -51 -90 -54 -90 -4 0 4 42 16 93 13 50 25
104 28 118 6 26 153 185 163 175 3 -2 0 -31 -7 -63z m115 -63 c-14 -27 -28
-50 -30 -50 -3 0 6 23 20 50 14 28 28 50 30 50 3 0 -6 -22 -20 -50z m-2643
-72 c105 -70 229 -214 292 -336 19 -36 15 -52 -7 -34 -8 7 -18 8 -22 4 -5 -4
-5 -2 -1 5 6 11 -32 55 -180 208 -27 28 -42 42 -34 30 29 -37 92 -109 148
-168 30 -32 51 -61 47 -65 -4 -4 -10 -2 -12 5 -3 8 -15 10 -32 7 -24 -5 -35 3
-85 56 -31 34 -76 88 -99 119 -23 31 -48 62 -55 70 -8 8 -18 25 -23 39 -5 14
-12 22 -16 18 -6 -6 82 -141 118 -181 74 -81 97 -110 88 -113 -18 -7 -58 27
-100 84 -54 74 -142 243 -135 261 3 8 2 12 -3 9 -7 -5 -31 42 -31 60 0 6 91
-43 142 -78z m2747 20 c-71 -183 -222 -399 -255 -366 -2 3 21 33 52 69 31 35
63 75 72 89 9 14 24 33 34 43 19 22 82 137 74 137 -3 0 -17 -22 -30 -49 -24
-46 -128 -181 -204 -262 -18 -21 -45 -39 -59 -42 -21 -4 -14 7 44 67 65 67
161 177 193 221 23 33 -3 5 -81 -85 -85 -97 -209 -220 -224 -220 -5 0 13 23
40 52 28 28 55 57 60 63 6 7 25 30 44 51 97 111 62 78 -117 -108 -35 -38 -69
-68 -74 -68 -11 0 24 64 84 152 42 63 143 170 199 210 29 22 159 98 166 98 2
0 -7 -24 -18 -52z m-332 -144 c-32 -76 -87 -178 -87 -161 0 4 18 43 40 87 22
44 40 83 39 87 0 9 -98 -178 -98 -190 -1 -5 4 -5 11 -1 7 4 8 3 4 -5 -4 -6
-12 -8 -18 -5 -7 5 -9 2 -6 -8 4 -8 0 -15 -7 -15 -11 0 -11 7 1 36 30 70 34
83 28 92 -3 5 0 8 6 7 7 -2 32 37 57 85 57 112 78 105 30 -9z m-2277 -245 c70
-12 179 -42 209 -58 19 -11 26 -29 36 -94 l6 -36 -58 25 c-32 14 -62 30 -68
35 -5 5 -14 9 -20 9 -14 0 40 -35 103 -66 28 -14 52 -30 52 -35 0 -5 -2 -9 -5
-9 -10 0 -170 82 -197 101 -14 11 -30 19 -34 19 -15 0 61 -48 147 -92 45 -24
85 -50 87 -57 5 -14 -87 33 -187 96 -29 19 -55 33 -57 31 -4 -5 106 -76 183
-119 35 -19 63 -40 63 -47 0 -15 3 -16 -100 47 -84 51 -80 49 -170 124 -62 52
-117 107 -134 135 -9 14 13 13 144 -9z m2465 -31 c-21 -24 -50 -53 -64 -66
-14 -13 -38 -34 -53 -47 -55 -49 -155 -118 -212 -147 -87 -44 -63 -11 30 42
92 52 185 113 180 118 -2 2 -35 -16 -72 -41 -68 -43 -181 -107 -190 -107 -2 0
-4 4 -4 10 0 5 21 20 48 32 59 29 162 88 162 94 0 2 -43 -19 -96 -47 -59 -32
-99 -48 -105 -42 -6 6 18 22 62 43 38 19 75 40 81 47 6 7 -21 -3 -60 -22 -39
-19 -74 -35 -78 -35 -3 0 -3 14 0 30 3 17 9 44 12 60 6 34 33 49 138 76 66 18
196 41 235 43 22 1 22 -1 -14 -41z m-2202 -322 c7 -18 -8 -42 -17 -27 -4 6
-11 9 -16 6 -4 -3 -13 2 -20 10 -7 8 -17 15 -23 15 -6 0 0 -12 14 -26 20 -22
21 -25 4 -16 -11 6 -31 20 -44 30 l-23 19 43 1 c23 1 44 4 47 6 7 7 30 -5 35
-18z m1897 -2 c0 -13 -38 -39 -54 -36 -13 3 -16 0 -11 -9 5 -8 4 -10 -3 -5 -7
4 -12 18 -12 31 0 17 6 25 23 27 22 4 57 -1 57 -8z m40 -2 c0 -4 -14 -16 -32
-26 l-31 -19 19 26 c18 25 44 36 44 19z"/>
<path d="M2030 4312 c-52 -62 -72 -94 -62 -104 11 -11 74 70 79 102 4 25 1 25
-17 2z m-21 -57 c-18 -25 -34 -45 -36 -45 -6 0 6 19 35 58 37 49 38 38 1 -13z"/>
<path d="M3466 4362 c-3 -5 5 -19 18 -31 13 -13 26 -18 30 -13 3 5 -5 19 -18
31 -13 13 -26 18 -30 13z m29 -22 c10 -11 16 -20 13 -20 -3 0 -13 9 -23 20
-10 11 -16 20 -13 20 3 0 13 -9 23 -20z"/>
<path d="M3517 4303 c-4 -3 15 -35 40 -72 61 -86 59 -84 59 -58 1 12 -17 46
-39 75 -44 57 -51 64 -60 55z m79 -98 c23 -42 5 -21 -40 45 -31 44 -32 48 -8
20 17 -19 38 -48 48 -65z"/>
<path d="M3636 4117 c3 -10 9 -15 12 -12 3 3 0 11 -7 18 -10 9 -11 8 -5 -6z"/>
<path d="M3608 4371 c12 -19 19 -37 17 -41 -2 -3 5 -6 16 -6 27 0 24 7 -17 47
l-36 34 20 -34z"/>
<path d="M3685 4249 c19 -36 21 -36 20 -2 0 17 -6 27 -17 29 -16 2 -16 0 -3
-27z"/>
<path d="M1900 4331 c-7 -13 -7 -22 0 -26 5 -3 10 -3 11 2 0 4 2 16 4 26 4 22
-2 22 -15 -2z"/>
<path d="M1758 4200 c-34 -73 -41 -97 -32 -112 5 -7 12 3 21 26 7 21 10 42 7
47 -3 5 0 9 5 9 6 0 11 11 11 24 0 13 5 26 12 28 6 2 9 11 6 19 -3 8 -15 -8
-30 -41z"/>
<path d="M2083 4193 c4 -3 -2 -12 -13 -20 -11 -8 -20 -22 -20 -32 0 -10 -7
-18 -15 -18 -10 0 -14 6 -10 16 3 8 -6 2 -20 -13 -30 -32 -33 -47 -5 -21 25
22 26 9 3 -19 l-18 -21 24 20 c13 11 25 19 28 17 8 -5 43 50 37 59 -2 4 3 9
11 13 18 6 20 26 3 26 -6 0 -8 -3 -5 -7z"/>
<path d="M1940 4017 l-23 -32 29 27 c15 15 26 30 23 33 -3 2 -16 -10 -29 -28z"/>
<path d="M3460 4190 c0 -6 6 -13 14 -16 8 -3 12 -12 9 -20 -3 -8 -1 -14 4 -14
6 0 15 -12 22 -26 11 -25 13 -25 25 -9 12 16 14 15 34 -13 15 -21 18 -32 10
-34 -9 -3 -9 -6 0 -12 7 -4 12 -2 12 4 0 6 5 8 10 5 6 -3 10 -2 10 2 0 17 -65
71 -82 68 -10 -2 -19 1 -19 6 -1 5 -2 13 -3 18 -2 15 -46 54 -46 41z"/>
<path d="M3621 4003 c7 -12 15 -20 18 -17 3 2 -3 12 -13 22 -17 16 -18 16 -5
-5z"/>
<path d="M1620 3996 c0 -8 5 -18 10 -21 6 -3 10 1 10 9 0 8 -4 18 -10 21 -5 3
-10 -1 -10 -9z"/>
<path d="M3926 4012 c-3 -6 -2 -13 4 -17 5 -3 7 -19 3 -35 -3 -17 -1 -30 4
-30 6 0 8 -11 5 -25 -2 -14 0 -25 6 -25 6 0 8 -13 6 -30 -4 -22 -1 -30 9 -30
12 0 13 7 7 34 -4 19 -5 37 -2 40 3 4 1 6 -5 6 -6 0 -9 9 -6 20 3 11 1 20 -5
20 -6 0 -8 8 -6 18 7 23 -10 69 -20 54z"/>
<path d="M1793 3875 c-3 -9 -3 -18 -1 -21 3 -3 8 4 11 16 6 23 -1 27 -10 5z"/>
<path d="M3740 3874 c0 -13 40 -137 47 -144 3 -3 2 9 -1 26 -9 39 -45 133 -46
118z"/>
<path d="M1512 3610 c0 -19 2 -27 5 -17 2 9 2 25 0 35 -3 9 -5 1 -5 -18z"/>
<path d="M1513 3557 c3 -8 8 -44 12 -80 4 -37 11 -70 16 -72 4 -3 6 5 3 17 -2
13 -7 51 -11 86 -3 34 -10 62 -16 62 -5 0 -7 -6 -4 -13z"/>
<path d="M4070 3700 c0 -11 4 -20 9 -20 5 0 7 9 4 20 -3 11 -7 20 -9 20 -2 0
-4 -9 -4 -20z"/>
<path d="M4052 3635 c0 -16 2 -22 5 -12 2 9 2 23 0 30 -3 6 -5 -1 -5 -18z"/>
<path d="M4045 3590 c-3 -6 1 -7 9 -4 18 7 21 14 7 14 -6 0 -13 -4 -16 -10z"/>
<path d="M3711 3655 c11 -19 17 -40 13 -46 -4 -7 -3 -9 4 -5 6 3 23 -10 38
-29 15 -20 29 -33 31 -31 5 4 -96 146 -103 146 -2 0 6 -16 17 -35z"/>
<path d="M1822 3420 c-6 -10 -8 -21 -3 -24 5 -3 11 4 14 16 8 29 4 32 -11 8z"/>
<path d="M1747 3333 c-15 -25 -26 -48 -23 -50 2 -3 9 5 16 16 6 12 15 19 20
16 5 -3 14 4 20 16 9 17 9 20 0 14 -9 -5 -10 -1 -5 14 10 31 3 25 -28 -26z"/>
<path d="M1419 3412 c-3 -20 -2 -29 4 -23 5 5 7 19 5 32 -3 20 -5 19 -9 -9z"/>
<path d="M1439 3323 c0 -5 -2 -21 -4 -38 -2 -16 -1 -23 2 -15 3 8 11 18 17 22
8 5 7 8 -1 8 -7 0 -10 7 -7 15 4 8 3 15 0 15 -3 0 -6 -3 -7 -7z"/>
<path d="M1592 3175 c0 -16 2 -22 5 -12 2 9 2 23 0 30 -3 6 -5 -1 -5 -18z"/>
<path d="M1591 3124 c0 -11 3 -14 6 -6 3 7 2 16 -1 19 -3 4 -6 -2 -5 -13z"/>
<path d="M1583 3025 c0 -22 2 -30 4 -17 2 12 2 30 0 40 -3 9 -5 -1 -4 -23z"/>
<path d="M3959 3338 c-1 -7 0 -17 1 -23 4 -16 3 -27 -3 -72 -4 -24 -3 -43 1
-43 5 0 8 10 9 23 4 87 3 127 -3 127 -2 0 -5 -6 -5 -12z"/>
<path d="M3817 3271 c15 -28 29 -48 31 -46 4 4 -48 95 -55 95 -2 0 8 -22 24
-49z"/>
<path d="M1352 3038 c-1 -23 0 -39 3 -36 9 9 14 78 6 78 -4 0 -8 -19 -9 -42z"/>
<path d="M4208 3082 c-3 -9 -2 -26 2 -37 6 -15 8 -10 8 18 0 40 -3 47 -10 19z"/>
<path d="M4196 2992 c8 -43 14 -54 14 -24 0 11 3 27 6 35 3 8 -2 17 -11 21
-13 5 -15 0 -9 -32z"/>
<path d="M1332 2760 c0 -14 2 -19 5 -12 2 6 2 18 0 25 -3 6 -5 1 -5 -13z"/>
<path d="M4215 2731 c-3 -5 -1 -12 5 -16 5 -3 10 1 10 9 0 18 -6 21 -15 7z"/>
<path d="M1599 2494 c6 -3 7 -12 4 -20 -3 -8 0 -14 7 -14 6 0 8 -5 4 -12 -4
-7 -3 -8 5 -4 9 6 9 11 -1 23 -7 9 -12 19 -10 22 2 3 -1 6 -7 8 -7 1 -7 -1 -2
-3z"/>
<path d="M1681 2325 c0 -13 88 -183 88 -172 1 9 -37 90 -66 142 -13 22 -23 36
-22 30z"/>
<path d="M1445 2330 c10 -11 20 -20 23 -20 3 0 -3 9 -13 20 -10 11 -20 20 -23
20 -3 0 3 -9 13 -20z"/>
<path d="M1505 2261 c17 -19 36 -41 42 -48 7 -8 18 -22 26 -31 7 -9 35 -37 62
-62 l50 -45 -51 55 c-70 77 -165 173 -129 131z"/>
<path d="M1574 1982 c3 -5 2 -12 -2 -14 -5 -1 3 -13 17 -25 l27 -21 1 21 c0
12 -1 16 -4 9 -4 -10 -8 -10 -19 -1 -8 6 -12 15 -9 19 3 5 0 12 -6 16 -7 4 -9
3 -5 -4z"/>
<path d="M4019 1983 c-13 -16 -12 -17 4 -4 16 13 21 21 13 21 -2 0 -10 -8 -17
-17z"/>
<path d="M3949 1943 c-13 -16 -12 -17 4 -4 16 13 21 21 13 21 -2 0 -10 -8 -17
-17z"/>
<path d="M3974 1938 l-19 -23 23 19 c12 11 22 21 22 23 0 8 -8 2 -26 -19z"/>
<path d="M985 1718 c-77 -38 -141 -72 -143 -73 -7 -7 109 -207 134 -232 22
-23 62 -33 89 -23 35 13 173 117 185 140 5 10 10 29 10 41 0 26 -110 219 -125
218 -5 0 -73 -32 -150 -71z m184 -64 c24 -40 26 -60 8 -78 -20 -20 -147 -100
-162 -102 -19 -3 -38 14 -64 58 l-22 37 73 42 c40 23 87 50 103 60 40 25 40
25 64 -17z"/>
<path d="M4341 1664 l-30 -49 22 -27 c12 -15 60 -76 107 -137 47 -60 88 -110
91 -110 4 -1 19 17 34 40 l27 41 -26 27 -25 26 30 47 c28 43 33 46 55 37 14
-5 29 -9 34 -9 11 0 38 43 46 74 5 22 3 26 -17 26 -20 0 -162 28 -291 56 -23
6 -30 1 -57 -42z m139 -56 c36 -12 66 -22 68 -23 5 -4 -26 -63 -36 -69 -5 -3
-37 25 -73 61 -35 36 -55 62 -44 58 11 -4 49 -16 85 -27z"/>
<path d="M1302 1488 c-9 -9 -6 -19 14 -45 14 -19 24 -37 22 -42 -2 -4 -43 -42
-92 -84 l-89 -76 -29 37 c-17 20 -34 37 -39 36 -25 -3 -29 -5 -29 -15 0 -12
72 -98 159 -191 34 -37 47 -45 58 -37 19 16 17 23 -17 59 -17 18 -29 36 -28
40 6 14 166 160 176 160 6 0 19 -11 30 -25 23 -28 35 -31 51 -11 9 11 4 21
-22 47 -18 19 -57 62 -86 97 -30 34 -57 62 -60 62 -4 0 -12 -5 -19 -12z"/>
<path d="M4200 1453 c-14 -9 -27 -20 -30 -23 -3 -4 -28 -34 -57 -66 -29 -32
-53 -63 -53 -67 -1 -5 49 -62 111 -128 l113 -120 35 36 35 35 -52 53 -52 53
38 37 c37 36 38 36 67 21 17 -8 42 -27 57 -41 l27 -26 21 24 c42 49 42 54 0
88 -50 40 -79 51 -109 40 -19 -7 -22 -6 -17 6 9 25 -11 63 -43 80 -39 19 -61
19 -91 -2z m75 -103 c5 -14 -2 -31 -22 -55 -15 -18 -30 -34 -33 -34 -9 -2 -70
55 -70 64 0 6 14 25 31 42 29 32 31 32 59 18 16 -8 31 -24 35 -35z"/>
<path d="M1524 1233 c-37 -7 -77 -58 -77 -99 0 -32 7 -44 57 -90 51 -47 56
-56 46 -74 -6 -12 -22 -26 -35 -32 -27 -12 -23 -14 -111 59 -49 41 -52 42 -67
25 -15 -17 -11 -22 74 -90 55 -44 100 -72 114 -72 65 0 116 54 110 116 -2 25
-14 44 -42 69 -21 19 -41 35 -45 35 -4 0 -12 9 -17 19 -8 14 -6 25 10 45 11
14 25 25 32 23 6 -1 38 -21 71 -44 45 -33 63 -40 73 -32 7 6 13 14 13 18 0 11
-143 118 -165 123 -11 3 -30 3 -41 1z"/>
<path d="M3971 1223 c-16 -8 -54 -38 -85 -67 -52 -48 -56 -55 -51 -86 5 -29
58 -117 113 -188 29 -38 79 -39 132 -3 108 73 143 125 121 179 -17 41 -144
168 -174 174 -14 3 -39 -1 -56 -9z m103 -147 c31 -38 56 -74 56 -80 -1 -30
-68 -80 -93 -70 -22 8 -127 153 -127 175 0 10 14 29 32 43 41 32 57 24 132
-68z"/>
<path d="M1776 1054 c-3 -9 -6 -16 -6 -18 0 -1 16 -10 35 -20 19 -11 35 -22
35 -25 0 -4 -32 -62 -70 -130 -39 -69 -69 -125 -68 -126 58 -37 76 -44 86 -33
5 7 36 65 67 128 32 63 59 117 61 119 2 2 21 -6 44 -18 22 -11 40 -17 40 -12
0 5 3 16 6 24 4 11 -24 30 -101 71 -58 31 -110 56 -114 56 -5 0 -12 -7 -15
-16z"/>
<path d="M3637 1003 c-53 -26 -97 -52 -97 -58 0 -6 13 -38 28 -71 16 -32 46
-98 67 -145 l38 -87 36 15 c85 36 182 96 196 123 19 36 11 61 -46 151 -84 131
-93 134 -222 72z m144 -108 c27 -44 48 -90 49 -101 0 -23 -32 -49 -71 -59 -22
-5 -28 3 -77 102 -29 59 -49 109 -44 111 5 1 18 9 28 17 39 30 64 15 115 -70z"/>
<path d="M2014 831 c-25 -58 -51 -119 -57 -136 -5 -16 -14 -34 -18 -40 -18
-18 -8 -33 31 -49 22 -9 42 -16 43 -16 2 0 14 29 27 65 27 71 27 71 95 45 30
-11 32 -37 10 -100 -8 -23 -15 -44 -15 -45 0 -7 71 -26 82 -23 6 2 12 11 13
19 2 7 8 33 14 57 10 37 10 48 -3 67 -20 30 -20 35 -1 35 41 0 64 106 29 140
-10 10 -60 34 -111 53 l-92 34 -47 -106z m153 17 c39 -14 49 -38 31 -75 -15
-30 -39 -34 -89 -14 l-27 10 16 45 c18 50 21 51 69 34z"/>
<path d="M3365 890 c-60 -20 -109 -40 -107 -44 1 -3 2 -13 2 -22 0 -12 6 -15
23 -10 71 20 63 27 97 -86 17 -56 33 -110 36 -119 3 -12 -7 -19 -41 -29 -45
-13 -59 -35 -30 -46 15 -6 251 68 267 84 4 4 2 16 -4 25 -12 15 -16 16 -42 2
-17 -9 -36 -14 -44 -13 -12 2 -91 194 -92 221 0 4 18 14 40 23 34 14 38 19 29
35 -12 23 -1 25 -134 -21z"/>
<path d="M2347 820 c-4 -17 2 -22 38 -31 l42 -11 -7 -36 c-5 -21 -11 -53 -14
-72 -6 -36 -11 -66 -21 -112 -6 -24 -9 -26 -38 -17 -48 14 -64 11 -70 -11 -4
-16 3 -21 47 -29 57 -12 90 -17 156 -26 83 -11 85 -11 85 9 0 15 -11 22 -45
30 -25 6 -45 16 -45 21 1 6 5 35 9 65 25 179 19 166 69 162 37 -3 43 -1 44 17
2 21 -10 26 -102 37 -27 3 -68 10 -90 15 -53 12 -52 12 -58 -11z"/>
<path d="M3158 833 c-31 -5 -31 -3 -18 -58 5 -22 11 -52 14 -68 2 -15 7 -35
10 -45 2 -9 7 -38 10 -63 7 -52 -4 -68 -51 -75 -35 -6 -62 13 -68 46 -6 37
-13 89 -21 150 -4 30 -8 62 -9 70 -2 14 -13 16 -63 11 -10 -1 -12 -19 -7 -83
15 -212 23 -232 95 -244 34 -6 162 20 184 37 34 27 37 63 14 154 -11 44 -22
89 -24 100 -12 62 -17 75 -27 74 -7 -1 -24 -4 -39 -6z"/>
<path d="M2645 791 c-2 -4 -6 -49 -9 -101 -4 -52 -9 -125 -12 -162 -6 -78 -23
-69 136 -73 104 -2 139 8 157 47 14 32 8 77 -16 109 -18 24 -19 28 -5 40 23
19 12 86 -19 116 -22 22 -33 25 -126 27 -56 1 -104 0 -106 -3z m176 -62 c13
-20 11 -42 -5 -65 -11 -16 -23 -19 -55 -16 -41 4 -41 4 -41 46 0 24 3 46 7 50
12 11 84 0 94 -15z m2 -138 c14 -14 18 -63 6 -77 -7 -9 -31 -14 -63 -14 l-52
0 2 38 c1 20 2 44 3 52 1 12 12 14 49 12 26 -2 51 -7 55 -11z"/>
</g>
</svg>
